<svg xmlns="http://www.w3.org/2000/svg" width="1400" height="284" viewBox="0 0 1400 284">
<defs><pattern id="eol" patternUnits="userSpaceOnUse" width="6" height="6" patternTransform="rotate(135)"><line x1="0" y1="0" x2="0" y2="6" stroke="#a30000" stroke-width="2" opacity="0.25"/></pattern></defs>
<rect width="1400" height="284" rx="8" fill="#ffffff" stroke="#d2d2d2" stroke-width="1"/>
<rect width="1400" height="56" rx="8" fill="#f0f0f0"/>
<rect y="48" width="1400" height="8" fill="#f0f0f0"/>
<line x1="0" y1="56" x2="1400" y2="56" stroke="#d2d2d2" stroke-width="1"/>
<text x="46" y="35" font-family="RedHatDisplay,RedHatText,'Red Hat Display','Red Hat Text','Open Sans',system-ui,sans-serif" font-size="14" font-weight="700" fill="#151515">Red Hat Satellite</text>
<rect x="24" y="19" width="15" height="15" rx="2" fill="none" stroke="#6a6e73" stroke-width="1.5"/>
<line x1="28" y1="17" x2="28" y2="22" stroke="#6a6e73" stroke-width="1.5"/>
<line x1="35" y1="17" x2="35" y2="22" stroke="#6a6e73" stroke-width="1.5"/>
<line x1="24" y1="26" x2="39" y2="26" stroke="#6a6e73" stroke-width="1"/>
<rect x="209.0" y="22" width="14" height="12" rx="2" fill="#bde5b8" stroke="#1e4f18" stroke-width="1.5"/>
<text x="228.0" y="33" font-family="RedHatDisplay,RedHatText,'Red Hat Display','Red Hat Text','Open Sans',system-ui,sans-serif" font-size="12" fill="#151515">Full Support</text>
<rect x="326.0" y="22" width="14" height="12" rx="2" fill="#f9e0a2" stroke="#795600" stroke-width="1.5"/>
<text x="345.0" y="33" font-family="RedHatDisplay,RedHatText,'Red Hat Display','Red Hat Text','Open Sans',system-ui,sans-serif" font-size="12" fill="#151515">Maintenance</text>
<text x="436.0" y="33" font-family="RedHatDisplay,RedHatText,'Red Hat Display','Red Hat Text','Open Sans',system-ui,sans-serif" font-size="11" fill="#a30000" opacity="0.7">┆ Today (2026-07-03)</text>
<rect x="0" y="158" width="1400" height="48" fill="#fafafa"/>
<line x1="483.5" y1="104" x2="483.5" y2="260" stroke="#d2d2d2" stroke-width="1" stroke-dasharray="4 3"/>
<text x="483.5" y="96" text-anchor="middle" font-family="RedHatDisplay,RedHatText,'Red Hat Display','Red Hat Text','Open Sans',system-ui,sans-serif" font-size="11" font-weight="600" fill="#6a6e73">2026</text>
<line x1="884.4" y1="104" x2="884.4" y2="260" stroke="#d2d2d2" stroke-width="1" stroke-dasharray="4 3"/>
<text x="884.4" y="96" text-anchor="middle" font-family="RedHatDisplay,RedHatText,'Red Hat Display','Red Hat Text','Open Sans',system-ui,sans-serif" font-size="11" font-weight="600" fill="#6a6e73">2027</text>
<line x1="1285.2" y1="104" x2="1285.2" y2="260" stroke="#d2d2d2" stroke-width="1" stroke-dasharray="4 3"/>
<text x="1285.2" y="96" text-anchor="middle" font-family="RedHatDisplay,RedHatText,'Red Hat Display','Red Hat Text','Open Sans',system-ui,sans-serif" font-size="11" font-weight="600" fill="#6a6e73">2028</text>
<line x1="684.5" y1="104" x2="684.5" y2="260" stroke="#a30000" stroke-width="1.5" stroke-dasharray="5 3" opacity="0.7"/>
<rect x="662.5" y="64" width="44" height="16" rx="3" fill="white" stroke="rgba(163,0,0,0.25)" stroke-width="1"/>
<text x="684.5" y="76" text-anchor="middle" font-family="RedHatDisplay,RedHatText,'Red Hat Display','Red Hat Text','Open Sans',system-ui,sans-serif" font-size="11" font-weight="700" fill="#a30000">Today</text>
<text x="144" y="133.0" text-anchor="end" font-family="RedHatMono,'Red Hat Mono','Courier New',monospace" font-size="14" font-weight="700" fill="#151515">6.19</text>
<clipPath id="c0"><rect x="620.8" y="111.0" width="629.3" height="34" rx="3"/></clipPath>
<g clip-path="url(#c0)">
<rect x="620.8" y="111.0" width="228.4" height="34" fill="#bde5b8"/>
<text x="735.0" y="132.0" text-anchor="middle" font-family="RedHatDisplay,RedHatText,'Red Hat Display','Red Hat Text','Open Sans',system-ui,sans-serif" font-size="11" font-weight="600" fill="#1e4f18">Full Support</text>
<rect x="849.2" y="111.0" width="400.9" height="34" fill="#f9e0a2"/>
<text x="1049.7" y="132.0" text-anchor="middle" font-family="RedHatDisplay,RedHatText,'Red Hat Display','Red Hat Text','Open Sans',system-ui,sans-serif" font-size="11" font-weight="600" fill="#795600">Maintenance</text>
</g>
<rect x="620.8" y="111.0" width="629.3" height="34" rx="3" fill="none" stroke="#d2d2d2" stroke-width="1"/>
<line x1="849.2" y1="111.0" x2="849.2" y2="145.0" stroke="rgba(0,0,0,0.18)" stroke-width="1"/>
<text x="1324" y="133.0" font-family="RedHatDisplay,RedHatText,'Red Hat Display','Red Hat Text','Open Sans',system-ui,sans-serif" font-size="12" font-weight="600" fill="#1e4f18">150d</text>
<text x="144" y="187.0" text-anchor="end" font-family="RedHatMono,'Red Hat Mono','Courier New',monospace" font-size="14" font-weight="700" fill="#151515">6.18</text>
<clipPath id="c1"><rect x="419.8" y="165.0" width="629.3" height="34" rx="3"/></clipPath>
<g clip-path="url(#c1)">
<rect x="419.8" y="165.0" width="201.0" height="34" fill="#bde5b8"/>
<text x="520.3" y="186.0" text-anchor="middle" font-family="RedHatDisplay,RedHatText,'Red Hat Display','Red Hat Text','Open Sans',system-ui,sans-serif" font-size="11" font-weight="600" fill="#1e4f18">Full Support</text>
<rect x="620.8" y="165.0" width="428.3" height="34" fill="#f9e0a2"/>
<text x="834.9" y="186.0" text-anchor="middle" font-family="RedHatDisplay,RedHatText,'Red Hat Display','Red Hat Text','Open Sans',system-ui,sans-serif" font-size="11" font-weight="600" fill="#795600">Maintenance</text>
</g>
<rect x="419.8" y="165.0" width="629.3" height="34" rx="3" fill="none" stroke="#d2d2d2" stroke-width="1"/>
<line x1="620.8" y1="165.0" x2="620.8" y2="199.0" stroke="rgba(0,0,0,0.18)" stroke-width="1"/>
<text x="1324" y="187.0" font-family="RedHatDisplay,RedHatText,'Red Hat Display','Red Hat Text','Open Sans',system-ui,sans-serif" font-size="12" font-weight="600" fill="#795600">332d</text>
<text x="144" y="241.0" text-anchor="end" font-family="RedHatMono,'Red Hat Mono','Courier New',monospace" font-size="14" font-weight="700" fill="#151515">6.17</text>
<clipPath id="c2"><rect x="219.9" y="219.0" width="627.1" height="34" rx="3"/></clipPath>
<g clip-path="url(#c2)">
<rect x="219.9" y="219.0" width="228.4" height="34" fill="#bde5b8"/>
<text x="334.1" y="240.0" text-anchor="middle" font-family="RedHatDisplay,RedHatText,'Red Hat Display','Red Hat Text','Open Sans',system-ui,sans-serif" font-size="11" font-weight="600" fill="#1e4f18">Full Support</text>
<rect x="448.3" y="219.0" width="398.7" height="34" fill="#f9e0a2"/>
<text x="647.7" y="240.0" text-anchor="middle" font-family="RedHatDisplay,RedHatText,'Red Hat Display','Red Hat Text','Open Sans',system-ui,sans-serif" font-size="11" font-weight="600" fill="#795600">Maintenance</text>
</g>
<rect x="219.9" y="219.0" width="627.1" height="34" rx="3" fill="none" stroke="#d2d2d2" stroke-width="1"/>
<line x1="448.3" y1="219.0" x2="448.3" y2="253.0" stroke="rgba(0,0,0,0.18)" stroke-width="1"/>
<text x="1324" y="241.0" font-family="RedHatDisplay,RedHatText,'Red Hat Display','Red Hat Text','Open Sans',system-ui,sans-serif" font-size="12" font-weight="600" fill="#795600">148d</text>
</svg>